{"title":"American.Hustle.2013.DVDScr.XViD.AC3-FiNGERBLaST","uid":9413416,"size":2033026382,"categoryP":"video","categoryS":"movies","magnet":"?xt=urn:btih:3db48f758ba01a806c12594764420ac3741e370d&amp;dn=American.Hustle.2013.DVDScr.XViD.AC3-FiNGERBLaST&amp;tr=udp%3A%2F%2Ftracker.openbittorrent.com%3A80&amp;tr=udp%3A%2F%2Fopen.demonii.com%3A1337&amp;tr=udp%3A%2F%2Ftracker.coppersurfer.tk%3A6969&amp;tr=udp%3A%2F%2Fexodus.desync.com%3A6969","seeders":8,"leechers":0,"uploader":null,"files":1,"time":1388365562,"description":"A con man, Irving Rosenfeld, along with his seductive British partner, Sydney Prosser, is forced to work for a wild FBI agent, Richie DiMaso. DiMaso pushes them into a world of Jersey powerbrokers and mafia.\n\nDirector: David O. Russell\nWriters: Eric Singer, David O. Russell\nStars: Christian Bale, Amy Adams, Bradley Cooper\n\n\nFile: American.Hustle.2013.DVDScr.XViD.AC3-FiNGERBLaST.avi\nFilesize: 1938.85 Mb ( 2,033,026,382 bytes )\nPlay length: 02:12:49.161 (238836 frames)\nSubtitles: Not Present\nVideo: 704x288 (2.44:1), 29.970 fps, ATI YVU12 4:2:0 Planar ~1837 kbps avg, 0.30 bit/pixel\nAudio: 48 kHz, AC3 Dolby Digital, 2/0 (L,R) ch, ~192 kbps\n\n\nGeneral\nComplete name                            : American.Hustle.2013.DVDScr.XViD.AC3-FiNGERBLaST.avi\nFormat                                   : AVI\nFormat/Info                              : Audio Video Interleave\nFile size                                : 1.89 GiB\nDuration                                 : 2h 12mn\nOverall bit rate                         : 2 041 Kbps\nWriting library                          : VirtualDub build 30091/release\n\nVideo\nID                                       : 0\nFormat                                   : MPEG-4 Visual\nFormat profile                           : Advanced Simple@L5\nFormat settings, BVOP                    : 2\nFormat settings, QPel                    : No\nFormat settings, GMC                     : No warppoints\nFormat settings, Matrix                  : Default (H.263)\nMuxing mode                              : Packed bitstream\nCodec ID                                 : XVID\nCodec ID/Hint                            : XviD\nDuration                                 : 2h 12mn\nBit rate                                 : 1 837 Kbps\nWidth                                    : 704 pixels\nHeight                                   : 288 pixels\nDisplay aspect ratio                     : 2.40:1\nFrame rate                               : 29.970 fps\nColor space                              : YUV\nChroma subsampling                       : 4:2:0\nBit depth                                : 8 bits\nScan type                                : Progressive\nCompression mode                         : Lossy\nBits/(Pixel*Frame)                       : 0.302\nStream size                              : 1.70 GiB (90%)\nWriting library                          : XviD 64\n\nAudio\nID                                       : 1\nFormat                                   : AC-3\nFormat/Info                              : Audio Coding 3\nMode extension                           : CM (complete main)\nFormat settings, Endianness              : Big\nCodec ID                                 : 2000\nDuration                                 : 2h 12mn\nBit rate mode                            : Constant\nBit rate                                 : 192 Kbps\nChannel count                            : 2 channels\nChannel positions                        : Front: L R\nSampling rate                            : 48.0 KHz\nBit depth                                : 16 bits\nCompression mode                         : Lossy\nStream size                              : 182 MiB (9%)\nAlignment                                : Aligned on interleaves\nInterleave, duration                     : 33 ms (1.00 video frame)\nInterleave, preload duration             : 512 ms\n","torrent":{"xt":"urn:btih:3db48f758ba01a806c12594764420ac3741e370d","amp;dn":"American.Hustle.2013.DVDScr.XViD.AC3-FiNGERBLaST","amp;tr":["udp%3A%2F%2Ftracker.openbittorrent.com%3A80","udp%3A%2F%2Fopen.demonii.com%3A1337","udp%3A%2F%2Ftracker.coppersurfer.tk%3A6969","udp%3A%2F%2Fexodus.desync.com%3A6969"],"infoHash":"3db48f758ba01a806c12594764420ac3741e370d","infoHashBuffer":{"type":"Buffer","data":[61,180,143,117,139,160,26,128,108,18,89,71,100,66,10,195,116,30,55,13]},"announce":[],"urlList":[]}}